<mxfile host="Electron" modified="2023-10-04T09:09:02.383Z" agent="5.0 (Windows NT 10.0; Win64; x64) AppleWebKit/537.36 (KHTML, like Gecko) draw.io/20.3.0 Chrome/104.0.5112.114 Electron/20.1.3 Safari/537.36" etag="AYzY2nqNYLkDckkGoCSM" compressed="false" version="20.3.0" type="device">
  <diagram name="IM017B" id="VLiucjEmI1owVakf49Qt">
    <mxGraphModel dx="782" dy="531" grid="1" gridSize="2" guides="1" tooltips="1" connect="1" arrows="1" fold="1" page="1" pageScale="1" pageWidth="1169" pageHeight="827" math="0" shadow="0">
      <root>
        <mxCell id="BCyMJaOIN41kEu0RnSU1-0" />
        <mxCell id="BCyMJaOIN41kEu0RnSU1-124" value="Connection" style="" parent="BCyMJaOIN41kEu0RnSU1-0" />
        <object label="Connection" PipingConnector="N" LabelConnector="N" SignalConnector="Y" Direction="90" AuxiliaryConnector="N" id="ou1rP0fdYBn3cRW_R4ls-0">
          <mxCell style="vsdxID=1407;fillColor=none;gradientColor=none;shape=stencil(rVFbDsIgEDwNnyQU4glqvcfGblsilmZBS28vZGMsxg9j/JvZmX1kR5g2TLCg0CpE8hdcbR8nYY5CaztPSDZmJEwnTDt4wpH8be6ZL1CcBV39vUxI3KdKh1YbswPTEzuBzlmiVGmKau9zUKM+jlJJQrJBko8QrZ+rrQ5oRJnXyMHBWElhRVx25ebnw/5zVvPFWRm83jxY5zilvf4eSy5xpKZ7AA==);strokeColor=#00FF00;strokeWidth=1;points=[[0.5,0.5,0,0,0]];labelBackgroundColor=none;rounded=0;html=1;whiteSpace=wrap;aspect=fixed;noLabel=1;snapToPoint=1;container=0;fontSize=16;" parent="BCyMJaOIN41kEu0RnSU1-124" vertex="1">
            <mxGeometry x="394" y="202" width="12" height="12" as="geometry" />
          </mxCell>
        </object>
        <object label="Connection" PipingConnector="N" LabelConnector="N" SignalConnector="Y" Direction="270" AuxiliaryConnector="N" id="uESD8fd1ngHVL0QE7zXk-0">
          <mxCell style="vsdxID=1407;fillColor=none;gradientColor=none;shape=stencil(rVFbDsIgEDwNnyQU4glqvcfGblsilmZBS28vZGMsxg9j/JvZmX1kR5g2TLCg0CpE8hdcbR8nYY5CaztPSDZmJEwnTDt4wpH8be6ZL1CcBV39vUxI3KdKh1YbswPTEzuBzlmiVGmKau9zUKM+jlJJQrJBko8QrZ+rrQ5oRJnXyMHBWElhRVx25ebnw/5zVvPFWRm83jxY5zilvf4eSy5xpKZ7AA==);strokeColor=#00FF00;strokeWidth=1;points=[[0.5,0.5,0,0,0]];labelBackgroundColor=none;rounded=0;html=1;whiteSpace=wrap;aspect=fixed;noLabel=1;snapToPoint=1;container=0;fontSize=16;" parent="BCyMJaOIN41kEu0RnSU1-124" vertex="1">
            <mxGeometry x="394" y="138" width="12" height="12" as="geometry" />
          </mxCell>
        </object>
        <mxCell id="BCyMJaOIN41kEu0RnSU1-130" value="Label" style="locked=1;" parent="BCyMJaOIN41kEu0RnSU1-0" />
        <object label="%LabelLines%&amp;nbsp; &amp;nbsp; &amp;nbsp; &amp;nbsp; &amp;nbsp; &amp;nbsp;%LabelIndex%" placeholders="1" LabelLines="1" LabelIndex="A" id="BCyMJaOIN41kEu0RnSU1-132">
          <mxCell style="rounded=0;whiteSpace=wrap;html=1;fillColor=none;strokeColor=#FF0000;fontColor=#FF0000;fontSize=10;align=left;noLabel=0;" parent="BCyMJaOIN41kEu0RnSU1-130" vertex="1">
            <mxGeometry x="360" y="170" width="80" height="16" as="geometry" />
          </mxCell>
        </object>
        <mxCell id="BCyMJaOIN41kEu0RnSU1-134" value="Origo" style="locked=1;" parent="BCyMJaOIN41kEu0RnSU1-0" visible="0" />
        <object label="origo" id="BCyMJaOIN41kEu0RnSU1-135">
          <mxCell style="vsdxID=1407;fillColor=none;gradientColor=none;shape=stencil(rVFbDsIgEDwNnyQU4glqvcfGblsilmZBS28vZGMsxg9j/JvZmX1kR5g2TLCg0CpE8hdcbR8nYY5CaztPSDZmJEwnTDt4wpH8be6ZL1CcBV39vUxI3KdKh1YbswPTEzuBzlmiVGmKau9zUKM+jlJJQrJBko8QrZ+rrQ5oRJnXyMHBWElhRVx25ebnw/5zVvPFWRm83jxY5zilvf4eSy5xpKZ7AA==);strokeColor=#ff0000;strokeWidth=1;points=[[0.5,0.5,0,0,0]];labelBackgroundColor=none;rounded=0;html=1;whiteSpace=wrap;aspect=fixed;noLabel=1;snapToPoint=1;" parent="BCyMJaOIN41kEu0RnSU1-134" vertex="1">
            <mxGeometry x="396" y="140" width="7.874" height="7.87" as="geometry" />
          </mxCell>
        </object>
        <object label="Symbol" Width="12" Height="4" UoM="mm" id="BCyMJaOIN41kEu0RnSU1-136">
          <mxCell style="locked=1;" parent="BCyMJaOIN41kEu0RnSU1-0" />
        </object>
        <mxCell id="BCyMJaOIN41kEu0RnSU1-137" value="" style="rounded=0;whiteSpace=wrap;html=1;strokeWidth=1;fillColor=none;" parent="BCyMJaOIN41kEu0RnSU1-136" vertex="1">
          <mxGeometry x="304" y="144" width="192" height="64" as="geometry" />
        </mxCell>
      </root>
    </mxGraphModel>
  </diagram>
</mxfile>
